<svg xmlns="http://www.w3.org/2000/svg" viewBox="0 0 76.62 73"><defs><style>.a,.c,.d{fill:none;}.b{fill:#fff;}.c,.d{stroke:#fff;stroke-linecap:round;stroke-linejoin:round;}.c{stroke-width:2.5px;}.d{stroke-width:5px;}</style></defs><rect class="a" width="75" height="73"/><path class="b" d="M53,18V55H6V18H53m0-5H6a5,5,0,0,0-5,5V55a5,5,0,0,0,5,5H53a5,5,0,0,0,5-5V18a5,5,0,0,0-5-5Z"/><line class="c" x1="3.99" y1="1.4" x2="73.4" y2="71.39"/><circle class="c" cx="29.5" cy="36.5" r="10.5"/><path class="c" d="M58,24.21"/><path class="c" d="M58,26.91"/><polygon class="d" points="55.55 28.92 74.12 17.23 74.12 55.84 55.55 44.41 55.55 28.92"/></svg>