<svg xmlns="http://www.w3.org/2000/svg" viewBox="0 0 282 119.9999"><defs><style>.a{fill:#f31212;}.a,.b,.c,.d,.e,.f{fill-rule:evenodd;}.b{fill:#c4c4c4;}.c{fill:#25e4a0;}.d{fill:#53ffc1;}.e{fill:#00cd83;}.f{fill:#00b574;}</style></defs><path class="a" d="M141.642.6461c-74.7443,0-135.9376,52.9542-141,120h49.4c4.5185-42.69,43.7388-76.118,91.6-76.4966Z" transform="translate(-0.642 -0.6461)"/><path class="b" d="M84.0471,63.0149,51.3947,30.3625C22.5449,52.232,3.3806,84.3772.642,120.646h49.4C52.5007,97.4151,65.2356,76.927,84.0471,63.0149Z" transform="translate(-0.642 -0.6461)"/><path class="c" d="M141.642.6461c-74.7443,0-135.9376,52.9542-141,120h49.4c4.5185-42.69,43.7388-76.118,91.6-76.4966Z" transform="translate(-0.642 -0.6461)"/><path class="d" d="M84.0471,63.0149,51.3947,30.3625C22.5449,52.232,3.3806,84.3772.642,120.646h49.4C52.5007,97.415,65.2356,76.927,84.0471,63.0149Z" transform="translate(-0.642 -0.6461)"/><path class="e" d="M141.642.6461c74.744,0,135.938,52.9542,141,120h-49.4c-4.518-42.69-43.739-76.118-91.6-76.4966Z" transform="translate(-0.642 -0.6461)"/><path class="f" d="M199.237,63.0149l32.652-32.6524c28.85,21.87,48.014,54.0147,50.753,90.2835h-49.4C230.783,97.415,218.048,76.927,199.237,63.0149Z" transform="translate(-0.642 -0.6461)"/></svg>