<svg xmlns="http://www.w3.org/2000/svg" viewBox="0 0 683.9211 509.3271"><defs><style>.a,.b{fill:#fff;}.b{stroke:#fff;stroke-miterlimit:10;}</style></defs><path class="a" d="M92.1313,235.4036h33.3145V95.292H158.76V69.9475H125.4458V48.11q-.6376-14.1867,14.3458-13.7085H158.76V3H137.2414Q117.9541,3,105.202,13.3608,92.1316,24.519,92.1313,48.11V69.9475H75.3946V95.292H92.1313Zm178.9989,0h33.3141V122.39q-.3187-30.2857-18.9683-42.7191-18.65-12.114-49.8919-11.7956-36.9806-.6375-55.9491,24.2287l26.1414,19.9249a23.9471,23.9471,0,0,1,11.7956-10.2016q7.1731-2.55,19.6062-2.55,34.2708-.6375,33.952,21.2v17.3746H225.0637q-26.46.3188-40.1686,14.3458-13.7079,13.7085-13.7083,34.59,0,21.8379,15.7806,35.865,14.9835,14.3454,42.7188,14.6644,16.8966,0,26.46-4.1443a27.6636,27.6636,0,0,0,14.3458-12.4331h.6379Zm0-58.1807q0,18.65-7.8106,23.91-8.6074,5.26-29.4888,4.9412-16.5774,0-23.7505-6.5352-7.492-5.8981-7.4917-14.3462Q202.27,165.9056,231.28,165.268h39.85Zm170.3209,9.564q-12.5944,16.8961-33.6341,17.2153-42.4008.7967-43.0358-51.1673.6366-52.2829,43.0358-51.6452,21.0412.6375,33.6341,17.3746L466,96.7265a84.49,84.49,0,0,0-25.5054-20.8814q-14.6658-7.651-33.9507-7.97-29.3315-.3188-51.4876,19.6062-22.9509,20.2437-23.5905,65.3535.6375,44.6318,23.5905,64.5566,22.1577,19.9248,51.4876,19.9248,19.2833-.3188,33.9507-8.4482A89.1365,89.1365,0,0,0,466,208.6247Zm172.871-21.5189V137.8515q-.3183-32.6769-20.2431-51.3266-19.6065-18.3309-47.9782-18.65a71.1153,71.1153,0,0,0-23.9124,4.3039,59.4419,59.4419,0,0,0-22.156,14.0272q-9.72,9.5639-15.9406,26.1414-6.2139,16.2587-6.2155,40.8061,0,25.5037,7.172,41.4437,6.5372,16.5774,17.057,25.8228a58.6825,58.6825,0,0,0,11.6379,7.4917,62.0915,62.0915,0,0,0,12.1112,5.579,86.2754,86.2754,0,0,0,25.5055,3.8253q34.2723.3187,59.6162-26.7789L586.907,189.975q-15.9438,16.0989-36.1836,16.0992-17.3786,0-28.0551-10.52Q511.19,185.1931,511.19,165.268ZM511.19,137.8515q.96-19.2873,10.3615-29.17,9.5633-9.4041,24.5489-9.4043,14.9841,0,24.5457,9.4043,9.725,9.8832,10.3615,29.17Z" transform="translate(-6.6556 -3)"/><path class="a" d="M159.2022,512.1577h29.582l52.9279-165.98H206.3734l-31.66,116.2488h-.64L136.3363,346.1778H112.1912L74.454,462.4266h-.6395L41.9939,346.1778H6.6556l53.0874,165.98H89.1651l34.6988-116.2488h.6395Z" transform="translate(-6.6556 -3)"/><path class="a" d="M417.3046,512.1577h33.4193v-99.94q.3192-18.2292,10.5547-26.3818a31.3591,31.3591,0,0,1,21.9051-8.3147q11.3521,0,21.9051,8.3147l24.3056-28.9427a53.9737,53.9737,0,0,0-34.857-12.7913q-26.7027,0-43.1749,19.6684h-.6386V346.1778H417.3046Zm127.6025,0h33.4193V464.3456l26.2246-29.7417,44.1312,77.5538h41.8945L625.4966,410.94,682.74,346.1778H642.7646l-63.8,77.8747h-.6386V279.0215H544.9071Z" transform="translate(-6.6556 -3)"/><path class="b" d="M271.61,442.2848c-.2145-4.1173-.59-8.1543-.5886-12.1911.0009-4.031.3783-8.0618.593-12.1389l-15.964-2.2774a102.93,102.93,0,0,0,.0032,28.8845Zm112.731,2.278a102.882,102.882,0,0,0-.0008-28.8856l-16.1728,2.3085a86.918,86.918,0,0,1,.0011,24.268ZM280.8287,364.7a79.0165,79.0165,0,0,0-16.8769,23.3433l14.7258,7.0908a62.776,62.776,0,0,1,13.32-18.5141ZM361.3165,465.105a62.7611,62.7611,0,0,1-13.3209,18.5135l11.1693,11.9205a79.0456,79.0456,0,0,0,16.8778-23.3426Zm14.7212-77.06a78.9123,78.9123,0,0,0-16.8727-23.3453l-11.1713,11.9247a62.9827,62.9827,0,0,1,13.33,18.5064ZM263.9571,472.194a78.838,78.838,0,0,0,16.872,23.346L292,483.6149a62.9836,62.9836,0,0,1-13.3295-18.5061Zm65.9553-106.0829,4.38-15.6925c-6.4222-2.5966-22.6672-2.5915-28.589.0088l4.38,15.685A36.9538,36.9538,0,0,1,329.9124,366.1111ZM310.0835,494.1267l-4.3954,15.7386a53.153,53.153,0,0,0,28.6171-.0006l-4.3938-15.7364A36.989,36.989,0,0,1,310.0835,494.1267Z" transform="translate(-6.6556 -3)"/><path class="b" d="M271.61,442.2848l-15.9564,2.2771a102.93,102.93,0,0,1-.0032-28.8845l15.964,2.2774c-.2147,4.0771-.5921,8.1079-.593,12.1389C271.0209,434.1305,271.3959,438.1675,271.61,442.2848Z" transform="translate(-6.6556 -3)"/><path class="b" d="M384.3414,444.5628l-16.1725-2.3091a86.918,86.918,0,0,0-.0011-24.268l16.1728-2.3085A102.882,102.882,0,0,1,384.3414,444.5628Z" transform="translate(-6.6556 -3)"/><path class="b" d="M280.8287,364.7l11.1692,11.92a62.776,62.776,0,0,0-13.32,18.5141l-14.7258-7.0908A79.0165,79.0165,0,0,1,280.8287,364.7Z" transform="translate(-6.6556 -3)"/><path class="b" d="M361.3165,465.105l14.7262,7.0914a79.0456,79.0456,0,0,1-16.8778,23.3426l-11.1693-11.9205A62.7611,62.7611,0,0,0,361.3165,465.105Z" transform="translate(-6.6556 -3)"/><path class="b" d="M376.0377,388.0447l-14.7144,7.0858a62.9827,62.9827,0,0,0-13.33-18.5064l11.1713-11.9247A78.9123,78.9123,0,0,1,376.0377,388.0447Z" transform="translate(-6.6556 -3)"/><path class="b" d="M263.9571,472.194l14.7134-7.0852A62.9836,62.9836,0,0,0,292,483.6149L280.8291,495.54A78.838,78.838,0,0,1,263.9571,472.194Z" transform="translate(-6.6556 -3)"/><path class="b" d="M329.9124,366.1111a36.9538,36.9538,0,0,0-19.829.0013l-4.38-15.685c5.9218-2.6,22.1668-2.6054,28.589-.0088Z" transform="translate(-6.6556 -3)"/><path class="b" d="M310.0835,494.1267a36.989,36.989,0,0,0,19.8279.0016l4.3938,15.7364a53.153,53.153,0,0,1-28.6171.0006Z" transform="translate(-6.6556 -3)"/></svg>