<svg xmlns="http://www.w3.org/2000/svg" viewBox="0 0 696.5767 512.1577"><defs><style>.a{fill:#fff;}</style></defs><path class="a" d="M319.6313,347.723h-.29l-.027,0h-.01l-.0172,0h-.0687l-.0148,0h-.0688l-.014,0h-.0133l-.0149,0h-.0264l-.0145,0-.0173,0h-.01l-.0267,0-.0128,0H318.97l-.0145,0-.0127,0-.0154,0-.0124,0-.014,0h-.014l-.0139,0H318.86l-.0136,0-.0142,0-.0136,0-.0152,0-.0116,0-.0167,0-.0116,0-.0159,0-.0116,0-.0142,0-.0269,0-.0134,0-.0129,0-.0146,0-.013,0-.0151,0-.0122,0-.0153,0-.0124,0-.0159,0-.0117,0-.0156,0-.0124,0-.0154,0-.0125,0-.0148,0-.0127,0-.0163,0-.0113,0-.0212,0H318.42l-.0274.0006-.0088,0-.0189,0-.0112,0-.0164,0-.0112,0-.0164,0-.0123,0-.0153,0-.0123,0-.0147,0-.0141,0-.0135,0-.013,0-.0161,0-.0114,0-.0176,0-.01,0-.0189.0005-.0091,0-.0547.0016-.01,0-.0185,0-.01,0-.0164,0-.013,0-.0151,0-.0118,0-.016,0-.0116,0-.0165.0006-.0115,0-.0151,0-.0131,0-.0143,0-.0132,0-.0148,0-.0126.0005-.0151,0-.0543.0019-.0122,0-.0133,0-.0143,0-.0141.0005-.0133,0-.0136,0-.0139,0-.014,0-.0139.0005-.0129,0-.0146.0006-.0136.0005-.0136,0-.0136.0006-.0138,0-.014,0-.0163.0007-.01,0-.0194.0008-.0195.0007-.0158.0007-.0156.0006-.011,0-.0156.0006-.0126,0-.0144.0007-.0125.0005-.015.0006-.0128.0006-.0146.0006-.0122.0005-.0152.0007-.0127.0006-.0146.0006-.0126.0006-.0147.0006-.0141.0007-.013.0005-.0162.0008-.0112,0-.0268.0012-.0114.0006-.0157.0007-.0142.0007-.0133.0006-.0133.0006-.0143.0007-.0142.0007-.0127.0006-.0147.0007-.0126.0006-.0151.0008-.0122.0006-.0147.0007-.0125.0006-.0154.0008-.0116.0006-.0154.0008-.0114.0006-.0163.0008-.0085,0-.0643.0034-.007,0-.0182.001-.0088,0-.0166.0009-.0115.0006-.0159.0009-.0105,0-.0168.0009-.0109.0006-.0159.0009-.0113.0006-.0156.0009-.0123.0007-.0153.0008-.01.0006-.0179.001-.0055,0-.067.0039-.0069,0-.0177.001-.0094.0006-.0165.001-.0114.0006-.0141.0009-.0135.0008-.0148.0009-.0117.0007-.016.0009-.01.0007-.0177.0011-.01,0-.0166.001-.0111.0007-.0166.0011-.01.0006-.0163.001-.0114.0008-.0287.0018-.0138.0008-.0138.0009-.0127.0009-.0157.001-.0118.0007-.0163.0011-.01.0006-.0164.0011-.0116.0008-.0158.001-.0107.0007-.016.0011-.0121.0008-.0151.001-.0109.0008-.0168.0011-.0089.0006-.0188.0013-.0036,0-.0982.0068-.0034,0-.02.0014-.0073,0-.0185.0013-.009.0007-.0164.0011-.0109.0008-.0173.0013-.009.0006-.0177.0013-.009.0007-.0188.0013-.0066,0-.02.0015-.0057,0-.0936.007-.0069,0-.0206.0016-.0054,0-.02.0015-.0076.0006-.0194.0015-.0069,0-.0188.0015-.0092.0007-.018.0014-.0077.0006-.0193.0015-.0077.0006-.0193.0016-.0064,0-.02.0016-.0074.0006-.0949.0076-.0031,0-.0228.0018-.0035,0-.0214.0017-.0057,0-.0213.0017-.0049,0-.0206.0018-.0068,0-.02.0018-.0053,0-.0213.0018-.0045,0-.1517.0131h-.0012l-.0245.0021-.0016,0-.0225.002-.0049,0-.0218.002-.0042,0-.0214.002-.006,0-.0209.0019-.0045,0-.0223.002-.003,0-.1508.0139-.0032,0-.023.0022-.0032,0-.0215.002-.0058.0005-.0211.0021-.0049,0-.021.002-.0057.0006-.0224.0021h-.0008l-.0252.0024h-.0006l-.1531.015-.0024,0-.05.005-.0014,0-.0244.0025h-.0019l-.0239.0024-.0026,0c-.0862.0088-.1705.0176-.2567.0268h0l-.0252.0028h-.0011l-.0246.0026-.0016,0c-.0688.0074-.1348.0147-.2036.0224l-.0029,0-.024.0027h-.0014l-.0241.0028-.0024,0c-.1032.0117-.2046.0234-.3077.0357H313.42a54.8478,54.8478,0,0,0-21.3927,7.3235l9.13,15.5127a36.07,36.07,0,0,1,18.4745-5.2036v-18Zm-48.6248,27.36a82.7392,82.7392,0,0,0-5.1742,8.2761l0,0-.0272.05-.0016.003-.0253.0463-.0037.0068-.0238.0438-.0039.0071-.0225.0415-.0059.0107-.0219.04-.0051.0093-.0222.041-.005.0093-.0224.0413-.0051.0094-.02.0379-.0071.0133-.02.0378-.0065.012-.0225.0418-.0045.0084-.0164.03-.011.0205-.0128.0238-.0123.023-.0149.0277-.0067.0126-.02.0382-.0056.01-.0218.0408-.0047.0087-.0215.04-.0071.0133-.0194.0364-.0075.0142-.02.0371-.0067.0125-.02.0372-.0074.0139-.0185.0348-.0088.0166-.017.0322-.0094.0177-.0177.0335-.0089.0168-.015.0284-.0118.0224-.0123.0232-.0145.0277-.0116.0219-.0152.029-.0115.0219-.0122.0232-.0141.0269-.0124.0236-.014.0268-.0114.0218-.0145.0276-.0119.0229-.0151.0289-.01.0186-.0168.0321-.01.0189-.0161.0309-.01.02-.0145.0279-.0125.024-.013.0251-.0129.0249-.0117.0224-.0149.029-.01.0186-.0162.0314-.01.02-.0166.032-.0094.0183-.0162.0314-.01.02-.0158.0305-.01.02-.0159.0309-.01.0191-.0159.0309-.01.0194-.0129.0252-.0134.0261-.0128.0252-.0123.0239-.0133.0262-.0119.0233-.0143.0281-.01.02-.0143.0282-.0121.0238-.0138.0271-.0091.018-.0167.033-.009.0178-.017.0334-.0086.0171-.0169.0333-.0092.0183-.0168.0333-.0086.0171-.0171.0339-.0087.0174-.0173.0342-.0078.0156-.0176.035-.0085.017-.016.032-.0091.018-.0156.0313-.01.0193-.0152.0305-.01.0194-.0151.03-.01.0208-.015.03-.0089.0178-.0164.033-.0076.0154-.018.0361-.0071.0143-.018.0363-.0077.0156-.0176.0356-.0076.0154-.0176.0354-.008.0163-.0173.0351-.0078.0158-.0176.0357-.0077.0157-.0176.0358-.0074.015-.0181.0369-.0066.0134-.0188.0385-.0057.0115-.0178.0364-.007.0144-.0172.0351-.0072.0148-.0177.0363-.0055.0112-.019.039-.0058.0119-.0191.0393-.0057.0118-.0194.04-.0056.0116-.0192.04-.0057.0118-.0191.0394-.0059.0123-.019.0393-.0056.0117-.0194.04-.0054.0113-.0193.04-.0054.0114-.02.0407-.0049.01-.02.0415-.0045.0092-.02.0422-.0043.009-.0192.04-.0048.01-.0194.0407-.0041.0086-.02.0415-.0043.0091-.0206.0432-.0039.0081-.02.0424-.0047.01-.02.042-.0045.0094-.02.0417-.0049.01-.02.0419-.0045.01-.02.0416-.0049.01-.02.0421-.0041.0088-.02.0427-.0042.009-.0206.044-.0027.0056-.0216.046-.0025.0054-.022.047-.0013.0028-.022.047-.0016.0036-.0226.0484-.0012.0026-.0223.0477-.0021.0046-.022.0474-.002.0042-.0214.046-.003.0067-.0214.046-.0023.0051-.0215.0463-.0027.006-.0212.0459-.0028.0059-.0209.0454-.0033.0071-.021.0457-.0023.0049-.0216.047-.0023.0051-.0218.0476-.0014.0028-.0224.0491-.0013.0027-.07.1532,0,0-.0225.05-.0016.0035-.0225.05-.0008.0016-.0226.05-.0011.0024-.0224.05-.0012.0026-.0222.0492-.0015.0032-.0224.05-.0005.0011-.0231.0513,0,0q-.117.26-.2324.5208v0a93.0849,93.0849,0,0,0-4.0858,11.1169l17.2525,5.133a69.987,69.987,0,0,1,9.9369-20.7078l-14.665-10.4374ZM254.3516,429.7c0,.08,0,.16,0,.2406v.3556l0,.05v.0094l0,.0515v.0044l0,.051v.0059l0,.0514v.01l0,.0507v.0079l0,.0522v.0057l0,.05v.0066l0,.0511v.01l0,.05v.01l.0005.0507v.0066l0,.0492v.006l.0005.0517v.0083l.0005.0513v.0083l.0006.0515v.0068l.0006.05v.0041l.0006.0511v.01l.0006.05v.01l.0007.049v.0108l.0007.047V431.4l.0008.0512v.0093l.0007.05,0,.01.0007.05,0,.01.0007.0486v.0037l.0008.0508,0,.01.0008.0484,0,.0119.0009.0481,0,.0114.0008.0476v.0065l.0009.0477,0,.0107.0009.0484,0,.0116.0009.0485,0,.01.001.05v.005l.001.0481,0,.0094.0011.0489,0,.0116.0011.0479,0,.0119.0011.0494,0,.0056.001.047,0,.01.0011.0488,0,.0112.0011.0479,0,.0123.0012.0487,0,.0073.0012.0465,0,.0092.0013.0481,0,.0127.0012.0462,0,.0148.0012.0462,0,.0108.0012.0425,0,.0107.0013.0474,0,.013.0013.0457,0,.0152.0013.0461,0,.0113.0012.0424,0,.0111.0014.0471,0,.0127.0014.0458,0,.0153.0015.0457,0,.012.0014.0415,0,.0136.0014.0442,0,.013.0016.046,0,.0147.0016.0462,0,.0115.0015.0443,0,.0114.0015.0442,0,.0132.0015.0453.0006.0159.0016.0449,0,.0132.0015.043.0005.0133.0016.0416,0,.0139.0016.0448.0006.0156.0017.0453.0006.0136.0016.042.0006.016.0016.0409,0,.0122.0018.0459.0006.0146.0018.0467.0005.0112.0019.0467.0005.0123.0017.0411,0,.012.0019.0457.0006.0152.0019.0447.0006.0145.002.0457,0,.0123.0018.04.0005.0133.002.0444.0007.0164.0019.0437.0007.0157.0021.0457.0005.01.0019.0431.0005.01.0021.0463.0007.0144.0021.0447.0007.0156.0022.0449.0006.0128.0019.04.0007.0155.002.0412.0008.0167.0021.0436.0008.0159.0022.0443.0007.0139.0021.0413.0005.0107.0022.0441.0008.0154.0023.0435.0008.0169.0022.0427.001.0179.0018.0345.0011.0218.0019.0351.001.0193.0021.04.0011.0207.0022.04.001.0189.0019.0346.0012.0221.0019.0343.001.0176.0023.0419.001.0186.0024.0414.001.0184.002.036.0013.022.0019.033.0011.0189.0023.0411.0011.0189.0024.0412.0011.0185.0023.0381.0011.0192.002.0342.0011.0172.0025.0426.001.0169.0026.042.0012.0193.0021.0353.0015.0238.0018.03.0017.0263.0021.0336.0012.02.0025.04.0013.02.0024.038.0013.02.002.0313.0015.0236.0023.0354.0013.0193.0026.04.0013.02.0025.0383.0014.0216.0019.0293.002.0291.002.03.0014.0213.0026.0385.0015.022.0026.0392.0013.0195.002.0294.002.0289.0021.0294.0014.0207.0027.0394.0015.0213.0027.0388.0015.0209.002.0279.0023.0324.0018.0261.0017.023.0026.037.0017.0232.0027.0376.0016.0215.002.0282.0023.0311.0019.0261.002.0267.0024.0328.0017.0239.0028.0365.0018.024.0018.0247.0025.0336.0021.027.0019.0247.0025.0339.0018.0232.0029.0376.0018.0231.0019.0247.0027.0357.0018.0227.0024.03.0023.03.0019.0239.0029.0365.0018.0234.002.0243.0029.0368.0018.0227.0025.031.0024.03.0018.0227.003.0369.002.0238.0021.0258.0028.0343.0018.0227.003.0359.0019.0235.0021.0248.0029.0349.0022.0266.0017.02.0034.04.0016.0193.0034.04.0018.02.0024.028.0027.0326.0024.0273.0013.0158.0039.0446.0015.0171.0039.0452.0012.0137.0043.05.0011.0119.0025.0289.0012.0138.0043.0474.0013.0147.004.0448.0015.0172.0035.0394.002.0214.0024.0271.0022.024.0033.0361.0016.0184.004.0436.0015.0156.0043.0468.0012.0133.0027.0293.0011.0119.0045.0488.0014.0146.0044.0474.0013.013.0045.0486.0012.0127.0086.0906.0013.0131.0045.0473.0014.0138.0047.0494.0011.0112.0089.0919.0009.0092.005.0506.0013.0134.0049.0492.0011.0116.0091.0911.001.01.0051.0506.0013.0126.0048.0483.0013.0128.0093.0913.0008.0079.0055.0529.0011.0114.0052.05.0012.0111.01.0925,0,.0019.0062.0593.0008.0079.0058.0552.0008.0068.0165.1554.0007.0068.0062.057.0005.0047.0171.1578,0,.0021.0067.0609,0,.003.0175.1583,0,.0019.0068.0609,0,.0032c.0084.0747.0167.1472.0252.2218l0,.0015.0183.1585,0,.0023.0072.0611,0,.0022c.0087.0746.0173.1468.0261.2213l0,.0024.0265.2205.0005.0039a99.1715,99.1715,0,0,0,3.2426,15.8623l17.2781-5.0467a83.2,83.2,0,0,1-3.2732-23.3387l0-.2-18-.0409Zm31.1054,44.3576-14.7276,10.3488a75.0673,75.0673,0,0,0,8.7532,10.3679l0,0q.1352.1329.2706.2648l0,0,.0362.0353.0039.0038.0163.0158.0026.0025.0168.0163.003.0029.0172.0167.0018.0017.0172.0167.003.003.0161.0155.004.0039.0152.0147.0052.005.0145.0141.0047.0045.0148.0143.0058.0055.0142.0138.004.0038.0162.0157.0017.0016c.0649.0625.1276.1228.1926.185l.0013.0012.0183.0176.0013.0011.0168.0161.0034.0033.0157.015.0045.0042.0139.0133.0066.0063.0142.0135.0048.0046.0153.0146.0042.004.0159.0152.0036.0033.0155.0148.0048.0045.016.0152.0024.0024.0171.0161.0031.0031.0165.0156.004.0038.0148.014.007.0066.0138.0131.0035.0034.0158.0149.0059.0055.0143.0136.0022.0021.07.0664.0066.0062.0082.0078.0128.0121.0064.0059.0129.0122.01.009.0112.01.0082.0078.0116.0109.0092.0087.0109.01.0109.01.0081.0076.012.0113.0089.0083.01.01.01.01.0088.0082.0126.0119.0074.0068.012.0113.0088.0083.0113.01.0091.0086.0115.0107.008.0075.0127.0119.0081.0075.0108.01.01.009.0122.0114.0075.0069.0158.0147.0039.0037.0167.0155.004.0037.016.0149.0044.0041.0607.0563.01.01.01.0089.0113.01.0092.0085.0087.0081.0121.0112.0084.0078.0115.0106.0091.0084.011.01.01.0093.01.01.0086.0079.0124.0115.008.0073.0125.0115.0074.0068.0127.0117.0083.0076.0133.0122.0054.0051.0156.0142.0054.005.0145.0134.0059.0054.0142.013.0068.0062.0154.0141.004.0037.0162.0148.005.0046.0161.0147.004.0037.0151.0138.006.0055.1236.1126.0016.0014.0194.0177.0009.0007.0188.0172.0043.0039.0171.0155.0024.0022.0176.0159.0044.004.016.0145.0054.0049.0142.0128.007.0064.0144.013.0058.0052.0143.013.0063.0056.0152.0137.0052.0048.0144.013.0065.0058.0155.0139.0046.0042.0171.0154.0031.0028.0186.0167.002.0018c.0836.0752.1667.15.2507.2243l0,.0005.02.0175.0026.0023.019.0168.001.0009.0195.0174.0019.0017.02.0177h0l.02.0179.0013.0012a65.4087,65.4087,0,0,0,5.4817,4.3651h0c.12.0852.2393.17.36.254l.0021.0014.0209.0147h0l.0224.0157h0l.0438.0306.0034.0024.02.0138.0019.0013.02.0141.0024.0017.0208.0145.0013.0009.0195.0136.0042.0029.02.014.0011.0008.0447.031h0l.0221.0154,0,0c.06.0418.12.0832.1808.1247l.0018.0013.0208.0143.0015.001.0211.0145.0019.0013.02.014.003.002.0188.0129.0054.0037.0178.0121.0031.0022.0195.0133.0036.0025.0179.0123.0054.0037.0163.011.0073.005.0149.01.0071.0048.0146.01.0089.0061.0125.0085.01.0066.0119.0081.011.0074.0145.01.006.0041.0162.011.0072.0049.0163.011.0054.0037.0155.01.0076.0052.02.0137.0014.001.0187.0126.0105.0071.0159.0108.007.0047.0151.01.0075.0052.0156.01.0065.0044.0148.01.01.0066.0132.0089.0093.0062.0122.0083.01.0069.0132.0088.009.0061.0122.0081.011.0074.0119.008.01.007.0107.0072.0119.008.0114.0076.0108.0072.0107.0072.0117.0078.0113.0076.011.0073.0107.0071.0116.0078.011.0073.0116.0078.01.0067.0121.008.0109.0073.0114.0076.01.0068.012.008.0106.007.012.008.0069.0046.1013.0671.0019.0013.0195.0128.0025.0017.0185.0122.0037.0024.0192.0127.0027.0018.0174.0114.0055.0037.0165.0108.0056.0037.0158.01.0068.0045.0156.01.0067.0044.0149.01.0076.0049.0155.01.006.0039.0157.01.0068.0045.0164.0107.0048.0032.0168.011.0062.004.0164.0108.005.0032.017.0111.0048.0031q.1289.084.258.1674l.0029.0018.0429.0277,0,0,.0432.0278.0012.0008q.8007.5145,1.6134,1.0017l9.2535-15.4393a51.8806,51.8806,0,0,1-15.411-14.7252Zm52.3589,15.0658a36.0061,36.0061,0,0,1-18.1846,5.0345l-.3173-.0014-.1636,17.9992q.15.0014.3.0019h.5583l.0192,0h.0692l.0128,0h.0409l.0141,0h.0267l.0146,0,.0135,0h.0132l.0147,0h.0127l.0148,0,.0129,0h.0133l.0143,0,.013,0,.0143,0,.0207,0h.0062l.0272,0,.01,0,.0171,0,.0121,0,.0153,0,.0112,0,.0169,0,.0108,0,.016,0,.0127,0,.014,0,.0143,0,.0131,0,.0137,0,.0137,0,.014,0,.0133,0,.0138,0,.0133,0,.0142,0,.0147,0,.0119,0,.0181,0,.0094,0,.0212,0,.0063,0,.0264-.0005.014,0,.0139,0,.0126,0,.0145,0,.0131,0,.0144,0,.0132,0,.0141,0,.0124,0,.0159,0,.0115,0,.0154,0,.0121,0,.0152,0,.0129,0,.0132,0,.0144,0,.0129,0,.0146,0,.0119,0,.0151,0,.014,0,.013,0,.0174,0,.01,0,.0268-.0007.0107,0,.0164-.0005.0134,0,.0138,0,.0132,0,.0141,0,.0139,0,.0134,0,.0132,0,.0144,0,.0127,0,.0151,0,.0118,0,.0153,0,.0129,0,.0138,0,.0134,0,.0136,0,.014,0,.0134-.0005.0135,0,.0128-.0005.0152,0,.0069,0,.0318-.0011.0143,0,.011,0,.0169-.0006.0113,0,.0152-.0006.0135,0,.0143,0,.0127,0,.0143,0,.0131-.0005.0142,0,.0138-.0006.0128,0,.0145-.0006.013,0,.014-.0006.0137,0,.013,0,.0148-.0006.0128,0,.0129-.0006.0147,0,.0119,0,.0152-.0007.0117,0,.0274-.0012.0141-.0006.0157-.0007.0113,0,.0148-.0007.0128,0,.0125-.0006.0151-.0006.0127-.0006.0142-.0006.0133-.0006.014-.0007.0132-.0005.0144-.0007.0122-.0006.0151-.0007.0128,0,.0135-.0007.0141-.0006.0121-.0006.0155-.0007.0126-.0006.0135-.0007.0156-.0007.0121-.0006.0129-.0006.0571-.0028.01,0,.015-.0008.0118-.0006.0157-.0008.0114-.0006.0162-.0008.01,0,.0162-.0009.0117-.0006.0148-.0007.0121-.0007.0151-.0008.0121-.0006.0149-.0008.012-.0006.0148-.0008.0128-.0007.0146-.0008.0115-.0006.0156-.0009.0111-.0006.0161-.0009.01,0,.0168-.001.0052,0,.0375-.0021.01-.0006.0167-.0009.01-.0006.0156-.0009.0116-.0007.0163-.0009.01-.0006.0162-.001.0109-.0006.016-.0009.0111-.0007.0155-.0009.0113-.0007.0166-.001.0094-.0006.0173-.001.01-.0006.0176-.0011.0092,0,.0172-.0011.01-.0006.0179-.0011.0048,0,.0215-.0014.0212-.0013.0156-.001.0169-.0011.0147-.0009.0111-.0007.0171-.0011.01-.0007.0166-.0011.01-.0006.0159-.0011.0118-.0007.0158-.0011.01-.0007.0163-.001.0115-.0008.0152-.001.0118-.0008.015-.001.012-.0008.0157-.0011.0084-.0006.0189-.0013.0059,0,.0211-.0015h0l.0762-.0053h.0018l.0187-.0014.0085-.0006.0157-.0011.0115-.0008.0165-.0012.01-.0007.0171-.0013.01-.0007.0181-.0013.0083-.0006.0178-.0013.0092-.0007.018-.0013.0088-.0007.0172-.0013.01-.0007.0175-.0013.0083-.0006.018-.0014.0087-.0007.0189-.0014h.0011l.0729-.0056.0045,0,.02-.0016.0069,0,.0176-.0014.01-.0008.0172-.0013.0091-.0007.0165-.0014.0112-.0008.0161-.0013.01-.0008.0164-.0014.0109-.0008.0164-.0014.0092-.0007.0178-.0015.0091-.0007.0177-.0015.0081-.0006.0187-.0016.0071-.0006.02-.0016h0l.1263-.0107.0038,0,.0218-.0019.0048,0,.02-.0017.0069-.0006.02-.0018.0067,0,.0187-.0017.0085-.0007.0191-.0017.0066-.0006.0194-.0017.0072-.0006.02-.0018.0046,0,.0213-.002.0051,0,.1247-.0114h.001l.0206-.0019.0068-.0006.0192-.0018.007-.0006.0189-.0018.0081-.0008.02-.0018.0055,0,.02-.002.0072-.0007.0191-.0018.0076-.0007.0181-.0017.0093-.0009.0185-.0018.0047,0,.0222-.0022h.0017l.151-.0149.0037,0,.0231-.0023.0027,0,.0228-.0023.0036,0,.0223-.0022.0043,0,.0206-.0021.0067-.0007.02-.002.005-.0006.0218-.0022.003,0,.0494-.0051.0024,0,.1523-.016h.0011l.0232-.0025.0033,0,.0213-.0023.0056-.0006.0219-.0023.0033,0,.0224-.0024.0044,0,.0213-.0023.0052-.0006.0209-.0023.0057-.0006.0214-.0024.0023,0,.0239-.0027h.0014l.152-.0171.0021,0,.0227-.0026.0037,0,.0218-.0025.0045-.0006.0216-.0024.0047-.0006.0214-.0025.0046-.0005.0219-.0025.004,0,.0221-.0026.0037,0,.023-.0027.0016,0,.0244-.0029h.001c.0688-.0081.136-.0161.2046-.0245h.0011l.0247-.0031h.0011l.024-.0029.0027,0,.0235-.0029.002,0,.0237-.0029.0026,0,.024-.0029h0c.0686-.0085.1358-.017.2044-.0258l.0017,0,.0249-.0032h.0006l.025-.0032h.0008l.0242-.0032.0023,0,.0242-.0031h.0009c.2228-.0291.4443-.0594.6664-.0913h.0006l.0247-.0035.0012,0a54.2945,54.2945,0,0,0,16.4858-5.1894l.001,0c.1-.05.1982-.099.2983-.15l.0028-.0014.019-.01.0053-.0028.0187-.0094.0041-.0021.02-.01.003-.0015.0207-.0105.002-.001.0211-.0107.0024-.0012.1573-.08.003-.0015.0171-.0088.0071-.0036.0166-.0085.0067-.0035.0172-.0088.0061-.0031.0171-.0088.0073-.0038.0148-.0076.01-.0051.0146-.0075.008-.0041.0158-.0082.0074-.0038.0166-.0085.0065-.0034.0167-.0086.0069-.0036.0835-.0432.0031-.0017.0175-.009.0059-.0031.0162-.0085.0078-.004.0155-.0081.0081-.0042.0148-.0077.0094-.0049.0148-.0077.0082-.0043.0153-.008.0088-.0046.0145-.0076.01-.005.0135-.0071.0115-.006.0122-.0064.0111-.0058.013-.0068.01-.0054.0134-.007.01-.0052.0509-.0268.0094-.005.0136-.0071.0106-.0056.0114-.006.0126-.0067.0117-.0061.0122-.0065.011-.0058.0129-.0068.011-.0059.0136-.0072.0092-.0048.0151-.0081.0092-.0048.0152-.0081.0082-.0044.0168-.0089.007-.0037.02-.0108.0031-.0016.02-.0109.0044-.0023.0725-.0387.0061-.0033.0169-.009.0106-.0057.0135-.0072.01-.0053.0141-.0076.0094-.005.015-.0081.0091-.0049.0137-.0073.0112-.006.013-.007.01-.0056.0139-.0075.01-.0052.0151-.0081.0088-.0048.0146-.0079.0093-.005.0174-.0094.0059-.0032.0723-.0392.0041-.0022.02-.0108.0054-.0029.0185-.01.0065-.0036.0175-.01.0066-.0036.0171-.0093.0072-.004.0176-.01.0056-.0031.0186-.01.0057-.0031.0184-.01.0057-.0031.0178-.01.0066-.0036.0205-.0113.0024-.0013q.0851-.0466.17-.0936l.0026-.0015.0218-.012.0024-.0013.0216-.012.0029-.0016.0216-.012.0025-.0014.0218-.0121.0023-.0013.0233-.0129.0005,0c.09-.05.1785-.0995.2679-.15l.0008,0q.2925-.1645.5832-.3325l-9.0051-15.5856Zm25.6-35.0977a69.7088,69.7088,0,0,1-10.0408,20.6366l14.6017,10.5257a88.0036,88.0036,0,0,0,12.6658-25.943l-17.2267-5.2193ZM381.05,402.0163l-17.3031,4.96a83.304,83.304,0,0,1,3.1646,22.9638l-.002.5985,18,.1228,0-.0339v-.0254c.001-.166.0016-.3292.0019-.4954V429.94h0v-.35l0-.0514v-.0023l0-.0507v-.0073l0-.0507v-.008l0-.0512v-.0068l-.0007-.1053v-.0082l0-.05v-.01l0-.05v-.006l0-.05v-.0045l0-.05v-.01l0-.0489v-.01l0-.05v-.0046l0-.0508v-.0047l-.0005-.05v-.01l-.0006-.05v-.0074l-.0006-.0518v-.0013l-.0006-.0515v-.0081l-.0006-.0481,0-.0131-.0006-.0474v-.0088l-.0007-.0476v-.005l-.0007-.0513v-.008l-.0008-.05v-.01l-.0008-.05v-.0044l-.0008-.049v-.0071l-.0008-.05,0-.01-.0008-.0486,0-.01-.0009-.0495v-.0023l-.0009-.05,0-.01-.0009-.05,0-.0083-.0009-.0508,0-.0061-.001-.0527v0l-.0011-.052v-.0087l-.0011-.05,0-.0087-.0011-.0506v-.0052l-.0011-.0494v-.0057l-.0011-.0508,0-.0087-.0012-.05,0-.0079-.0012-.0519v0l-.0013-.0525v-.0069l-.0013-.05,0-.0087-.0013-.0508v-.0057l-.0013-.0482,0-.0067-.0012-.05,0-.01-.0013-.0488,0-.01-.0013-.05,0-.0043-.0013-.048,0-.0083-.0014-.049,0-.01-.0015-.0491,0-.0086-.0015-.05v-.0023l-.0015-.0506,0-.0086-.0015-.0491,0-.01-.0015-.05,0-.0067-.0016-.049v-.0044l-.0016-.05,0-.01-.0017-.0495,0-.0082-.0016-.0509,0-.0045-.0017-.0488,0-.0071-.0017-.0487,0-.011-.0017-.0488,0-.0078-.0038-.1041,0-.0071-.0018-.05,0-.01-.0019-.05,0-.0053-.0019-.051v-.003l-.002-.0518,0-.0073-.0019-.0507,0-.007-.0043-.1092v0l-.0022-.0536,0-.0058-.0021-.0514,0-.0067-.0044-.1049,0-.0069-.0022-.0507,0-.0075-.0022-.0508,0-.0057-.0023-.0517v-.0014l-.0023-.0519,0-.0076-.0023-.05,0-.0069-.0024-.0526v-.0007l-.0025-.0537v-.0035l-.0024-.0518,0-.0072-.0024-.0511,0-.0055-.0051-.106,0-.0057-.0025-.0513,0-.0067-.0025-.0517,0-.0043-.0027-.0528v-.0011l-.0027-.054,0-.004-.0027-.053,0-.0044-.0055-.1064,0-.0059-.0026-.0513,0-.0062-.0027-.0511,0-.0067-.0057-.1051,0-.0059-.0028-.0516,0-.0056-.003-.0529V424.13l-.0061-.1079,0-.0063-.0029-.0513,0-.0059-.0063-.1089v-.0008l-.0031-.0532,0-.0056-.0031-.0529v-.0022l-.0066-.11v-.0026l-.0032-.0521,0-.007-.0032-.0521V423.51l-.0034-.055h0l-.0033-.0535,0-.0049-.0033-.052,0-.0053-.0069-.1087v-.0011l-.0034-.0533,0-.0049-.0034-.0525,0-.0039-.0071-.1078,0-.0037-.0036-.0525,0-.005-.0035-.0526,0-.0029-.0073-.1077,0-.0046-.0036-.0523,0-.0046-.0037-.0535h0l-.0039-.0557v0l-.0038-.0543,0-.0034-.0038-.0539v-.0016l-.008-.1111v0l-.004-.0548,0-.0025-.0081-.1106v0l-.004-.054,0-.0034-.004-.0534,0-.0029-.0083-.11h0l-.0043-.0557v-.0007l-.0043-.0551v-.0015l-.0086-.11V421.77l-.0043-.0552v-.0008l-.0134-.1673v0l-.0045-.0555V421.49l-.0135-.1655,0-.0034-.0045-.0542h0l-.014-.1662,0-.0028-.0141-.1643,0-.0031-.0045-.0527,0-.0045-.0144-.1635,0-.0022-.0048-.0545v-.0007l-.01-.11,0-.0015-.0049-.0548v-.0008l-.0152-.1654,0-.0023-.005-.0542v-.0013l-.0155-.1648,0-.0028-.0051-.0541V420.04l-.01-.11v-.0017l-.0053-.0539,0-.0022-.0161-.1654v0l-.0054-.0547,0-.0017-.0109-.11h0l-.0055-.0547,0-.0015-.0055-.0548v0l-.0112-.11,0-.0016-.0056-.054v-.0018l-.017-.1635,0-.0034-.0056-.0533v-.0016l-.0174-.1642,0-.0023-.0178-.165h0l-.0058-.0535,0-.0039-.0179-.1636v-.0006l-.0061-.0547v-.0009l-.0183-.1633,0-.0039-.0059-.0523,0-.003-.0123-.108v-.001l-.0063-.0546v0l-.0191-.1649v-.0008l-.0064-.0544v-.0011l-.0194-.1637,0-.0021-.0263-.2193v0l-.02-.1641,0-.0016-.0066-.0534,0-.0023-.0133-.108,0-.001-.0067-.0539,0-.0016-.0068-.0542h0l-.0136-.1081,0-.0029-.0067-.0527,0-.0026-.0207-.1616,0-.0032-.0067-.052,0-.0037-.0139-.1068v-.0012l-.0068-.0516-.0007-.0055-.0068-.0522v0l-.0143-.1083,0-.0019-.0069-.0518-.0006-.0049-.0214-.16,0-.0039-.007-.0512-.0006-.0048-.0145-.1065v0l-.0072-.0524-.0006-.0044-.007-.051-.0006-.0044-.0145-.1042,0-.0039-.0071-.0509-.0007-.0052-.0071-.0506,0-.004-.0146-.1038-.0007-.0048-.0072-.0508-.0006-.0042L383.88,415.3l0-.0031-.0073-.0509-.0007-.0053-.0073-.0508,0-.0033-.0151-.1044-.0006-.0042-.0074-.0506-.0007-.005-.0075-.0515,0-.0013-.0077-.0528v-.0012l-.0076-.0515-.0007-.0049-.0074-.05-.0008-.0053-.0152-.1023-.0008-.0051-.0075-.05-.0007-.0049-.0075-.05-.0007-.0046-.0155-.1026-.0008-.0054-.0076-.05-.0007-.0051-.0162-.1061h0l-.0077-.05-.0011-.0069-.0075-.0493-.0008-.0052-.0079-.0512v0l-.0079-.0511-.0007-.0046-.0075-.0483-.0013-.0085-.0076-.0487-.0007-.0045-.0161-.1029-.0007-.0043-.0076-.0485-.0015-.0092-.0075-.0476-.0008-.0051-.0078-.049,0-.0025-.0079-.05-.0011-.0068-.0078-.0487-.001-.0065-.0164-.1023-.0005-.0032-.0082-.0509-.0007-.0044-.0083-.0507-.0006-.0037-.0168-.103-.0007-.0049-.0082-.05-.0008-.0052-.0083-.05-.0006-.004-.0167-.1011-.0013-.0076-.008-.0483-.001-.0062-.0082-.0493-.0007-.0043-.0079-.0469-.0009-.0059-.0081-.0481-.0014-.0081-.008-.0477-.0011-.0066-.0083-.0491v-.0007l-.0085-.05-.001-.0059-.0082-.0485-.0012-.007-.0083-.0489-.0008-.0045-.008-.0469-.001-.0055-.0083-.0484-.0012-.0071-.0082-.0476-.0013-.008-.0171-.0984-.0012-.0071-.0081-.0465-.0017-.01-.0079-.0457-.0017-.01-.0078-.0442-.0008-.005-.0079-.0449-.0022-.0121-.0076-.0434-.0022-.0126-.0078-.0438-.0018-.01-.007-.04-.0017-.0092-.0079-.0445-.0021-.012-.0077-.0433-.0024-.0133-.0073-.0408-.0023-.0129-.0068-.0378-.0022-.0122-.0076-.0422-.0026-.0145-.0077-.0429-.002-.011-.0075-.0414-.0016-.0086-.0078-.043-.0021-.0116-.0079-.0433-.0023-.0129-.0081-.0443-.0015-.0083-.0077-.0417-.0016-.0089-.008-.0434-.0025-.0137-.0077-.0415-.0028-.0153-.0072-.0389-.0025-.0137-.0069-.0373-.0022-.0118-.008-.0426-.0026-.0142-.0077-.0413-.0028-.0148-.0069-.0366-.0025-.0138-.0073-.0389-.0026-.0139-.0079-.0418-.0027-.0144-.0078-.0413-.0027-.014-.0066-.0349-.0023-.0119-.0078-.0412-.003-.016-.0078-.0406-.0027-.0145-.0073-.0381-.0033-.017-.0063-.0331-.003-.0155-.0077-.04-.0033-.0172-.0075-.0388-.0032-.017-.0062-.0319-.004-.02-.0063-.0322-.0034-.018-.0075-.0384-.0034-.0176-.0073-.0373-.0037-.0185-.0057-.0295-.0041-.0207-.0069-.0352-.0034-.0174-.0076-.0384-.0035-.0182-.0065-.0325-.0043-.022-.0056-.0279-.0038-.0195-.0074-.0372-.0037-.0183-.0076-.0383-.0035-.0179-.006-.03-.0048-.0238-.0059-.03-.004-.02-.0072-.0361-.004-.02-.0069-.0342-.0044-.0216-.0053-.0261-.0053-.0262-.0057-.0282-.0045-.0222-.007-.0347-.0042-.0209-.0058-.0279-.0053-.0263-.0057-.028-.0041-.02-.0071-.035-.0044-.0213-.0073-.0355-.0042-.02-.0049-.024-.0065-.0315-.0049-.0237-.0045-.0215-.007-.0339-.005-.0239-.0047-.0228-.0069-.0332-.0045-.0214-.0069-.0336-.0048-.0227-.0049-.0235-.0069-.0329-.0052-.0249-.0036-.0168-.0083-.04-.0036-.017-.0084-.04-.0035-.0166-.0056-.0266-.0026-.0121-.01-.0454-.0032-.0151-.0089-.0416-.0033-.0155-.0092-.0434-.003-.014-.0057-.0265-.0029-.0138-.0093-.0435-.0032-.0149-.009-.0419-.0031-.0142-.0184-.0854-.0024-.0112-.01-.048-.0022-.01-.01-.0482-.0022-.01-.019-.0871-.0016-.0074-.0116-.0528-.0013-.0058-.0192-.0878-.002-.0091-.0111-.05-.0017-.0077-.0116-.0526-.0014-.0065-.0195-.0876-.0017-.0078-.0116-.0518-.0013-.006-.02-.089,0-.0011-.0129-.0573-.0016-.0072-.0115-.0512-.0017-.0078c-.0275-.1219-.0542-.2392-.0822-.3609l-.0008-.0037c-.0279-.1217-.0557-.2416-.0841-.3631h0q-.5539-2.3724-1.2175-4.6859Zm-32.991-46.1091-9.376,15.3652a52.2133,52.2133,0,0,1,15.3362,14.8564l14.7895-10.26a76.8441,76.8441,0,0,0-5.9125-7.4969l0,0q-.2109-.2352-.4228-.4676l-.0007-.0007-.0372-.0408-.0018-.002q-.154-.1686-.3088-.3359l-.0018-.0019-.0179-.0194-.0007-.0007-.0186-.02-.001-.0011-.0375-.0405-.0017-.0018-.0179-.0192-.0013-.0014-.0175-.0189-.0024-.0025-.0175-.0189-.0015-.0015-.0173-.0187-.0025-.0026-.0184-.02,0,0-.0194-.0208h0q-.117-.1256-.2342-.25l-.0007-.0008-.0186-.02-.0015-.0016-.017-.018-.0037-.004-.017-.018-.001-.0011-.0186-.02-.001-.0011-.0191-.02h0l-.0181-.0192-.0026-.0027-.0182-.0193,0,0-.0586-.0618,0,0q-.1376-.1449-.2753-.2886l-.0006-.0006-.0381-.04-.0021-.0023q-.1575-.1637-.3157-.3263v0l-.0392-.04-.0013-.0013-.0187-.0192-.0008-.0008-.0185-.0189-.002-.0021-.0185-.019-.0006,0-.0187-.0192-.0017-.0017-.0183-.0187-.0014-.0014-.0182-.0187-.0017-.0017-.0192-.02h0l-.0191-.0195-.0011-.0011c-.08-.0812-.1587-.1614-.2387-.2421l-.0016-.0016-.0381-.0384-.0022-.0023-.0177-.0179-.002-.0019-.0176-.0177-.0029-.0029-.0171-.0172-.0026-.0027-.0166-.0166-.0041-.0041-.017-.0172-.0017-.0016-.0189-.019-.0007-.0008-.0381-.0381-.0027-.0027-.0185-.0185-.0008-.0009c-.0736-.0736-.1469-.1466-.2207-.22l-.0007-.0007-.0784-.0777-.0037-.0036-.0172-.017-.0019-.0019-.0183-.018-.0017-.0017-.0184-.0181-.0018-.0019-.0175-.0172-.003-.0029-.0186-.0183-.0007-.0007q-.1413-.1392-.2829-.2771l0,0-.0193-.0187-.002-.002-.0386-.0375-.0017-.0017-.0184-.0178-.0018-.0018-.0176-.017-.0035-.0034-.0179-.0174-.0012-.0011-.0186-.0181-.002-.0019-.0189-.0182-.001-.0011-.0186-.018-.002-.0019c-.0745-.072-.1486-.1433-.2235-.215h0l-.02-.0189-.0018-.0018-.0191-.0182,0,0-.02-.019,0-.0005-.1011-.0964-.0015-.0014-.0193-.0184-.0007-.0007a65.9785,65.9785,0,0,0-7.8436-6.4052l-.0019-.0013-.0206-.0143-.0019-.0012-.02-.0136-.0047-.0033-.0178-.0123-.0042-.0029L351,357.82l-.0058-.004-.0175-.0121-.0038-.0027-.0183-.0126-.0046-.0031-.0194-.0135-.0019-.0013-.02-.0135-.0037-.0026-.02-.0134-.0024-.0017-.02-.0136-.0029-.002-.0437-.03-.0011-.0007c-.06-.0412-.1194-.0818-.1794-.1227l-.0071-.0048-.0158-.0107-.006-.0041-.0161-.011-.006-.004-.0174-.0119-.0048-.0032-.0159-.0108-.0083-.0057-.0147-.01-.0075-.0051-.0141-.01-.0085-.0057-.0148-.01-.0074-.005-.0135-.0092-.01-.0065-.014-.0094-.0076-.0051-.0148-.01-.0074-.0049-.016-.0108-.0066-.0044-.014-.01-.0089-.0059-.0127-.0086-.01-.0068-.0115-.0077-.0106-.0071-.0124-.0083-.01-.0069-.0084-.0056-.0452-.03-.0132-.0088-.0048-.0032-.0175-.0117-.0086-.0058-.0133-.0089-.0117-.0078-.0106-.0071-.0108-.0071-.0116-.0078-.0116-.0077-.01-.0071-.0119-.0078-.01-.0069-.0123-.0082-.0105-.0069-.01-.0069-.0121-.0081-.0116-.0077-.01-.0066-.0124-.0082-.01-.0063-.0137-.0091-.0083-.0056-.0134-.0088-.0089-.0059-.0143-.01-.0069-.0045-.0152-.01-.0064-.0042-.0169-.0112-.0038-.0025-.0173-.0114-.0062-.0041-.0172-.0114-.001,0-.0209-.0138-.0012-.0008q-.8781-.5782-1.773-1.1243Z"/><path class="a" d="M114.7246,395.2817h-.623l-33.78,116.876H51.68L0,345.3374H34.4028L65.3779,462.3521h.6226l36.7383-117.0147h23.5044l36.7353,117.0147h.6231l30.8217-117.0147h34.4024l-51.5235,166.82H148.5044Z"/><path class="a" d="M426.6753,345.3374H459.11v17.6787h.6777q16.0386-19.768,42.0469-19.7676a51.745,51.745,0,0,1,33.9482,12.8086l-23.6885,28.9844q-10.2861-8.3775-21.35-8.38a30.0356,30.0356,0,0,0-21.35,8.3672q-9.9741,8.2119-10.2851,26.5527V512.1577H426.6753Z"/><path class="a" d="M554.7642,277.8374h32.4345V423.5923h.6778l62.1357-78.2549h38.9326l-55.75,65.0889,63.3819,101.7314H655.7554l-43.0039-77.9336-25.5528,29.8877v48.0459H554.7642Z"/><path class="a" d="M91.9849,93.1987H75.6V67.5H91.9849V45.4819q0-23.7824,12.7563-35.0351Q117.1866.0017,136.0127,0h21.0034V31.4849h-18.56q-14.6829-.482-14.0372,13.8891V67.5h32.5972V93.1987H124.4189V234.32H91.9849Z"/><path class="a" d="M264.1445,219.542h-.623a27.2924,27.2924,0,0,1-14.002,12.5308q-9.3376,4.1733-25.8271,4.1762-27.0754-.3244-41.6978-14.7832-15.4058-14.14-15.4033-36.1557,0-21.0484,13.3794-34.87Q193.35,136.3,219.18,135.979h44.9648V118.3755q.32-22.1214-33.1548-21.48-12.1435,0-19.145,2.584a23.6482,23.6482,0,0,0-11.5185,10.3354L174.7979,89.7036q18.5061-24.936,54.5922-24.293,30.48-.32,48.6812,11.8926,18.1933,12.5361,18.5073,43.0713V234.32H264.1445Zm0-55.9507h-38.98q-28.39.6445-28.0674,20.1045,0,8.5239,7.3276,14.4741,7.0173,6.5955,23.2329,6.5943,20.4236.3237,28.8457-4.9849,7.6392-5.3072,7.6416-24.1245Z"/><path class="a" d="M460.7759,207.4712a87.495,87.495,0,0,1-24.918,20.3052q-14.329,8.1548-33.17,8.4726-28.5968,0-50.2031-20.0893-22.3813-20.0881-23.002-65.0889.6219-45.48,23.0225-65.8926,21.621-20.0881,50.2451-19.7676,18.8232.3238,33.1348,8.0181a82.997,82.997,0,0,1,24.8906,21.0059l-23.9766,21.9673Q424.502,99.4705,403.9517,98.8237q-41.4126-.64-42.0342,52.2471.621,52.5681,42.0312,51.7646,20.5475-.32,32.8457-17.4145Z"/><path class="a" d="M511.3452,163.5913q0,20.1072,11.2149,30.5581,10.434,10.615,27.414,10.6148,19.7827,0,35.3594-16.2447l23.5195,20.7422Q584.1089,236.57,550.6519,236.249a81.72,81.72,0,0,1-24.9-3.8574,59.5092,59.5092,0,0,1-11.8252-5.625,56.9184,56.9184,0,0,1-11.36-7.5532q-10.2714-9.3194-16.6513-26.0357-7.0064-16.0686-7.003-41.7856,0-24.7471,6.0694-41.1426,6.0644-16.7131,15.5586-26.3569A57.7824,57.7824,0,0,1,522.17,69.75a67.4219,67.4219,0,0,1,23.3418-4.3394q27.6958.3238,46.8379,18.8086,19.45,18.8072,19.7627,51.76v27.6123Zm68.333-27.6123q-.6255-19.5417-10.14-29.5537-9.3648-9.53-24.0264-9.53-14.6675,0-24.0273,9.53-9.2052,10.0114-10.14,29.5537Z"/></svg>